<mxfile host="Electron" agent="Mozilla/5.0 (Windows NT 10.0; Win64; x64) AppleWebKit/537.36 (KHTML, like Gecko) draw.io/28.2.5 Chrome/138.0.7204.251 Electron/37.6.1 Safari/537.36" version="28.2.5">
  <diagram name="Página-1" id="i3KY8MhGgAlK3jDC1Spx">
    <mxGraphModel dx="284" dy="407" grid="1" gridSize="10" guides="1" tooltips="1" connect="1" arrows="1" fold="1" page="1" pageScale="1" pageWidth="827" pageHeight="1169" math="0" shadow="0">
      <root>
        <mxCell id="0" />
        <mxCell id="1" parent="0" />
        <mxCell id="9I9kNzGxl10Iy9DEwJE5-10" style="edgeStyle=orthogonalEdgeStyle;rounded=0;orthogonalLoop=1;jettySize=auto;html=1;entryX=0.5;entryY=0;entryDx=0;entryDy=0;" edge="1" parent="1" source="9I9kNzGxl10Iy9DEwJE5-1" target="9I9kNzGxl10Iy9DEwJE5-9">
          <mxGeometry relative="1" as="geometry" />
        </mxCell>
        <mxCell id="9I9kNzGxl10Iy9DEwJE5-1" value="Início" style="ellipse;whiteSpace=wrap;html=1;" vertex="1" parent="1">
          <mxGeometry x="354" y="40" width="120" height="80" as="geometry" />
        </mxCell>
        <mxCell id="9I9kNzGxl10Iy9DEwJE5-6" style="edgeStyle=orthogonalEdgeStyle;rounded=0;orthogonalLoop=1;jettySize=auto;html=1;entryX=0.5;entryY=0;entryDx=0;entryDy=0;" edge="1" parent="1" source="9I9kNzGxl10Iy9DEwJE5-2" target="9I9kNzGxl10Iy9DEwJE5-5">
          <mxGeometry relative="1" as="geometry" />
        </mxCell>
        <mxCell id="9I9kNzGxl10Iy9DEwJE5-2" value="Inicializar monitor serial (115200 baud)" style="rounded=0;whiteSpace=wrap;html=1;" vertex="1" parent="1">
          <mxGeometry x="354" y="280" width="120" height="60" as="geometry" />
        </mxCell>
        <mxCell id="9I9kNzGxl10Iy9DEwJE5-8" style="edgeStyle=orthogonalEdgeStyle;rounded=0;orthogonalLoop=1;jettySize=auto;html=1;entryX=0.5;entryY=0;entryDx=0;entryDy=0;" edge="1" parent="1" source="9I9kNzGxl10Iy9DEwJE5-5" target="9I9kNzGxl10Iy9DEwJE5-7">
          <mxGeometry relative="1" as="geometry" />
        </mxCell>
        <mxCell id="9I9kNzGxl10Iy9DEwJE5-5" value="Escrever &quot;Olá&quot; no serial monitor" style="rounded=0;whiteSpace=wrap;html=1;" vertex="1" parent="1">
          <mxGeometry x="354" y="380" width="120" height="60" as="geometry" />
        </mxCell>
        <mxCell id="9I9kNzGxl10Iy9DEwJE5-12" style="edgeStyle=orthogonalEdgeStyle;rounded=0;orthogonalLoop=1;jettySize=auto;html=1;entryX=0;entryY=0.5;entryDx=0;entryDy=0;" edge="1" parent="1" source="9I9kNzGxl10Iy9DEwJE5-7" target="9I9kNzGxl10Iy9DEwJE5-9">
          <mxGeometry relative="1" as="geometry">
            <Array as="points">
              <mxPoint x="414" y="580" />
              <mxPoint x="300" y="580" />
              <mxPoint x="300" y="200" />
            </Array>
          </mxGeometry>
        </mxCell>
        <mxCell id="9I9kNzGxl10Iy9DEwJE5-7" value="Aguardar 2000 ms" style="rounded=0;whiteSpace=wrap;html=1;" vertex="1" parent="1">
          <mxGeometry x="354" y="480" width="120" height="60" as="geometry" />
        </mxCell>
        <mxCell id="9I9kNzGxl10Iy9DEwJE5-11" style="edgeStyle=orthogonalEdgeStyle;rounded=0;orthogonalLoop=1;jettySize=auto;html=1;entryX=0.5;entryY=0;entryDx=0;entryDy=0;" edge="1" parent="1" source="9I9kNzGxl10Iy9DEwJE5-9" target="9I9kNzGxl10Iy9DEwJE5-2">
          <mxGeometry relative="1" as="geometry" />
        </mxCell>
        <mxCell id="9I9kNzGxl10Iy9DEwJE5-9" value="Repetir sempre" style="rhombus;whiteSpace=wrap;html=1;" vertex="1" parent="1">
          <mxGeometry x="356" y="160" width="116" height="80" as="geometry" />
        </mxCell>
      </root>
    </mxGraphModel>
  </diagram>
</mxfile>
